<svg width="48" height="48" viewBox="0 0 48 48" fill="none" xmlns="http://www.w3.org/2000/svg">
  <defs>
    <clipPath id="clip-eyfs"><rect width="48" height="48" rx="12"/></clipPath>
  </defs>
  <g clip-path="url(#clip-eyfs)">
    <rect width="48" height="48" rx="12" fill="#0D9488"/>
    <path d="M12 13 L48 49 L48 48 L28 48 L12 32 Z" fill="#000" opacity="0.12"/>
    <rect x="12" y="13" width="13" height="13" rx="3" fill="#EF233C"/>
    <circle cx="18.5" cy="19.5" r="2.5" fill="#FFFFFF" fill-opacity="0.85"/>
    <rect x="27" y="19" width="11" height="11" rx="3" fill="#FFDC21"/>
    <rect x="31" y="22" width="3" height="5" rx="1.5" fill="#1E3C54" fill-opacity="0.55"/>
    <rect x="12" y="29" width="11" height="11" rx="3" fill="#FFFFFF"/>
    <path d="M17.5 32.5l1.2 2.5 2.8.4-2 2 .5 2.7-2.5-1.3-2.5 1.3.5-2.7-2-2 2.8-.4z" fill="#FFDC21"/>
    <rect x="26" y="33" width="13" height="7" rx="3" fill="#F1EFE3"/>
    <circle cx="30" cy="36.5" r="1.6" fill="#0D9488"/>
    <circle cx="35" cy="36.5" r="1.6" fill="#EF233C"/>
  </g>
</svg>
