<svg width="48" height="48" viewBox="0 0 48 48" fill="none" xmlns="http://www.w3.org/2000/svg">
  <defs>
    <clipPath id="clip-homework"><rect width="48" height="48" rx="12"/></clipPath>
  </defs>
  <g clip-path="url(#clip-homework)">
    <rect width="48" height="48" rx="12" fill="#C026D3"/>
    <path d="M12 14 L46 48 L26 48 L12 34 Z" fill="#000" opacity="0.12"/>
    <path d="M12 15a3 3 0 0 1 3-3h13l8 8v17a3 3 0 0 1-3 3H15a3 3 0 0 1-3-3z" fill="#FFFFFF"/>
    <path d="M28 12l8 8h-8z" fill="#EFC0F5"/>
    <rect x="16" y="25" width="14" height="2.5" rx="1.25" fill="#EFC0F5"/>
    <rect x="16" y="30" width="10" height="2.5" rx="1.25" fill="#EFC0F5"/>
    <circle cx="34" cy="34" r="6.5" fill="#FFDC21"/>
    <path d="M34 30.5V34l2.2 1.4" stroke="#1E3C54" stroke-width="1.8" stroke-linecap="round" stroke-linejoin="round" fill="none"/>
  </g>
</svg>
