<svg width="48" height="48" viewBox="0 0 48 48" fill="none" xmlns="http://www.w3.org/2000/svg">
  <defs>
    <clipPath id="clip-sensory"><rect width="48" height="48" rx="12"/></clipPath>
  </defs>
  <g clip-path="url(#clip-sensory)">
    <rect width="48" height="48" rx="12" fill="#65A30D"/>
    <path d="M14 13 L46 45 L28 48 L14 34 Z" fill="#000" opacity="0.12"/>
    <path d="M24 12c5.5 0 10 4.3 10 9.6 0 3.6-1.9 5.6-3.4 7.4-1.1 1.3-1.6 2.3-1.6 3.5v.5H19v-.5c0-1.2-.5-2.2-1.6-3.5-1.5-1.8-3.4-3.8-3.4-7.4C14 16.3 18.5 12 24 12z" fill="#FFFFFF"/>
    <rect x="19" y="34" width="10" height="2.6" rx="1.3" fill="#FFDC21"/>
    <rect x="20.5" y="38" width="7" height="2.4" rx="1.2" fill="#1E3C54"/>
    <circle cx="21" cy="21" r="2.4" fill="#EF233C"/>
    <circle cx="27" cy="21" r="2.4" fill="#0EA5E9"/>
    <circle cx="24" cy="26" r="2.4" fill="#FFDC21"/>
  </g>
</svg>
